<svg width="470" height="431" viewBox="0 0 470 431" fill="none" xmlns="http://www.w3.org/2000/svg">
<g clip-path="url(#clip0_10_886)">
<g clip-path="url(#clip1_10_886)">
<path d="M389.026 272.727H274.491V381.861H389.026V272.727Z" fill="#1F2025" stroke="white" stroke-width="3" stroke-miterlimit="10"/>
<path d="M274.491 381.86H32.9688L215.65 147.476L298.279 184.146L274.491 381.86Z" fill="#205BF1" stroke="white" stroke-width="3" stroke-miterlimit="10"/>
<path d="M215.65 147.475C225.781 124.651 252.475 114.365 275.3 124.496C298.124 134.627 308.41 161.321 298.279 184.145L215.65 147.475Z" fill="#1F2025" stroke="white" stroke-width="3" stroke-miterlimit="10" stroke-linecap="round" stroke-linejoin="round"/>
<path d="M270.742 117.014L308.238 79.5527L317.766 89.3567L280.288 126.801L270.742 117.014Z" fill="#1F2025" stroke="white" stroke-width="3" stroke-miterlimit="10"/>
<path d="M403.078 153.375L316.562 79.5527L307.532 89.9071L393.739 163.42L403.078 153.375Z" fill="#1F2025" stroke="white" stroke-width="3" stroke-miterlimit="10"/>
<path d="M365.479 263.747L404.764 160.117L391.348 155.68L351.702 261.133L365.479 263.747Z" fill="#1F2025" stroke="white" stroke-width="3" stroke-miterlimit="10"/>
<path d="M416.924 272.725H307.532V271.848C307.532 263.575 314.24 256.85 322.531 256.85H401.943C410.216 256.85 416.942 263.558 416.942 271.848V272.725H416.924Z" fill="#1F2025" stroke="white" stroke-width="3" stroke-miterlimit="10"/>
<path d="M333.281 251.828H328.258V256.851H333.281V251.828Z" fill="#1F2025" stroke="white" stroke-width="3" stroke-miterlimit="10"/>
<path d="M395.906 173.757C404.664 173.757 411.764 166.657 411.764 157.898C411.764 149.14 404.664 142.04 395.906 142.04C387.148 142.04 380.048 149.14 380.048 157.898C380.048 166.657 387.148 173.757 395.906 173.757Z" fill="#1F2025" stroke="white" stroke-width="3" stroke-miterlimit="10"/>
<path d="M395.906 164.795C399.715 164.795 402.803 161.707 402.803 157.898C402.803 154.089 399.715 151.001 395.906 151.001C392.097 151.001 389.009 154.089 389.009 157.898C389.009 161.707 392.097 164.795 395.906 164.795Z" fill="white" stroke="white" stroke-width="3" stroke-miterlimit="10"/>
<path d="M312.4 100.897C321.158 100.897 328.258 93.7974 328.258 85.0391C328.258 76.2807 321.158 69.1807 312.4 69.1807C303.642 69.1807 296.542 76.2807 296.542 85.0391C296.542 93.7974 303.642 100.897 312.4 100.897Z" fill="#1F2025" stroke="white" stroke-width="3" stroke-miterlimit="10"/>
<path d="M312.4 91.936C316.209 91.936 319.297 88.848 319.297 85.0388C319.297 81.2296 316.209 78.1416 312.4 78.1416C308.591 78.1416 305.503 81.2296 305.503 85.0388C305.503 88.848 308.591 91.936 312.4 91.936Z" fill="white" stroke="white" stroke-width="3" stroke-miterlimit="10"/>
<path d="M276.142 137.155C284.901 137.155 292.001 130.055 292.001 121.297C292.001 112.539 284.901 105.438 276.142 105.438C267.384 105.438 260.284 112.539 260.284 121.297C260.284 130.055 267.384 137.155 276.142 137.155Z" fill="#1F2025" stroke="white" stroke-width="3" stroke-miterlimit="10"/>
<path d="M276.142 128.194C279.952 128.194 283.04 125.106 283.04 121.297C283.04 117.487 279.952 114.399 276.142 114.399C272.333 114.399 269.245 117.487 269.245 121.297C269.245 125.106 272.333 128.194 276.142 128.194Z" fill="white" stroke="white" stroke-width="3" stroke-miterlimit="10"/>
<path d="M381.682 252.773H342.775V256.85H381.682V252.773Z" fill="white" stroke="white" stroke-width="3" stroke-miterlimit="10"/>
<path d="M328.258 365.898H308.96V374.688H328.258V365.898Z" fill="#1F2025" stroke="#1F2025" stroke-width="3" stroke-miterlimit="10"/>
<path d="M89.9715 225.228L89.5052 224.022L89.0388 225.228L87.4158 229.425L83.2188 231.048L82.0129 231.514L83.2188 231.981L87.4158 233.604L89.0388 237.801L89.5061 239.009L89.9717 237.8L91.5946 233.587L95.7899 231.981L97.0035 231.517L95.7915 231.048L91.5946 229.425L89.9715 225.228Z" fill="white" stroke="white"/>
<path d="M106.346 49.9603L105.88 48.7544L105.413 49.9603L103.79 54.1572L99.5932 55.7803L98.3873 56.2466L99.5932 56.713L103.79 58.336L105.413 62.533L105.88 63.7389L106.346 62.533L107.969 58.336L112.166 56.713L113.372 56.2466L112.166 55.7803L107.969 54.1572L106.346 49.9603Z" fill="white" stroke="white"/>
<path d="M194.496 87.7835L194.027 86.5715L193.563 87.7851L191.957 91.9805L187.744 93.6033L186.535 94.069L187.743 94.5362L191.94 96.1593L193.563 100.356L194.03 101.562L194.496 100.356L196.119 96.1593L200.316 94.5362L201.522 94.0699L200.316 93.6035L196.119 91.9805L194.496 87.7835Z" fill="white" stroke="white"/>
<path d="M343.242 183.967L342.773 182.749L342.308 183.968L340.702 188.18L336.489 189.803L335.274 190.271L336.49 190.737L340.686 192.343L342.309 196.555L342.775 197.767L343.242 196.555L344.865 192.343L349.06 190.737L350.274 190.272L349.062 189.803L344.865 188.18L343.242 183.967Z" fill="white" stroke="white"/>
<path d="M408.395 56.0673L407.929 54.8561L407.462 56.0673L405.839 60.2801L401.644 61.8861L400.43 62.3507L401.642 62.8194L405.839 64.4425L407.462 68.6394L407.929 69.8453L408.395 68.6394L410.018 64.4425L414.215 62.8194L415.427 62.3507L414.214 61.8861L410.018 60.2801L408.395 56.0673Z" fill="white" stroke="white"/>
<path d="M267.08 197.089L266.612 195.877L266.147 197.091L264.541 201.286L260.328 202.909L259.119 203.375L260.328 203.842L264.525 205.465L266.148 209.662L266.615 210.87L267.081 209.661L268.703 205.449L272.899 203.842L274.112 203.378L272.9 202.909L268.703 201.286L267.08 197.089Z" fill="#1F2025" stroke="#1F2025"/>
<path d="M200.496 208.3L200.027 207.088L199.563 208.302L197.957 212.497L193.744 214.12L192.535 214.586L193.743 215.053L197.94 216.676L199.563 220.873L200.03 222.079L200.496 220.873L202.119 216.676L206.316 215.053L207.522 214.586L206.316 214.12L202.119 212.497L200.496 208.3Z" fill="#1F2025" stroke="#1F2025"/>
<path d="M87.8664 349.49L87.4016 348.271L86.9326 349.488L85.3095 353.702L81.1129 355.325L79.9008 355.794L81.1145 356.258L85.3098 357.864L86.9326 362.077L87.4016 363.294L87.8664 362.075L89.4722 357.864L93.6834 356.258L94.9023 355.794L93.6849 355.325L89.4726 353.702L87.8664 349.49Z" fill="#1F2025" stroke="#1F2025"/>
<path d="M159.318 332.107L158.853 330.888L158.384 332.105L156.761 336.319L152.547 337.942L151.33 338.411L152.549 338.876L156.761 340.482L158.384 344.694L158.853 345.911L159.318 344.693L160.923 340.481L165.135 338.876L166.353 338.411L165.136 337.942L160.924 336.319L159.318 332.107Z" fill="#1F2025" stroke="#1F2025"/>
<path d="M191.381 262.207L196.558 275.692L210.06 280.886L196.558 286.081L191.381 299.565L186.169 286.081L172.684 280.886L186.186 275.692L191.381 262.207Z" stroke="#1F2025" stroke-width="3" stroke-miterlimit="10" stroke-linecap="round" stroke-linejoin="round"/>
</g>
</g>
<defs>
<clipPath id="clip0_10_886">
<rect width="470" height="430" fill="white" transform="translate(0 0.5)"/>
</clipPath>
<clipPath id="clip1_10_886">
<rect width="430" height="430" fill="white" transform="translate(20 1)"/>
</clipPath>
</defs>
</svg>
