<svg width="18" height="18" viewBox="0 0 18 18" fill="none" xmlns="http://www.w3.org/2000/svg">
<path fill-rule="evenodd" clip-rule="evenodd" d="M5 2C3.34315 2 2 3.34315 2 5V13C2 14.6569 3.34315 16 5 16H13C14.6569 16 16 14.6569 16 13V5C16 3.34315 14.6569 2 13 2H5ZM0 5C0 2.23858 2.23858 0 5 0H13C15.7614 0 18 2.23858 18 5V13C18 15.7614 15.7614 18 13 18H5C2.23858 18 0 15.7614 0 13V5ZM9 7C7.89543 7 7 7.89543 7 9C7 10.1046 7.89543 11 9 11C10.1046 11 11 10.1046 11 9C11 7.89543 10.1046 7 9 7ZM5 9C5 6.79086 6.79086 5 9 5C11.2091 5 13 6.79086 13 9C13 11.2091 11.2091 13 9 13C6.79086 13 5 11.2091 5 9Z" fill="#1F2025"/>
</svg>
