<svg width="22" height="19" viewBox="0 0 22 19" fill="none" xmlns="http://www.w3.org/2000/svg">
<path fill-rule="evenodd" clip-rule="evenodd" d="M18.2814 1.87973C18.367 1.85607 18.451 1.83306 18.5336 1.81043C19.2554 1.61271 19.8715 1.44394 20.5244 1.12874C20.7014 1.03289 20.9084 0.989711 21.1214 1.01575C21.6231 1.07707 22.0001 1.503 22.0001 2.00836V2.00936C22.0001 2.10124 21.9875 2.19119 21.9636 2.27716C21.771 3.02827 21.2635 4.06034 20.8659 4.84082C20.7632 5.04239 20.6687 5.22514 20.5821 5.3927C20.4832 5.58418 20.3945 5.75581 20.3154 5.913C20.2571 6.02899 20.213 6.11972 20.182 6.18717C20.1742 7.48901 19.9951 8.78442 19.6492 10.04L19.6478 10.0448C18.4203 14.4145 15.2065 17.3456 11.3131 18.4767L11.3129 18.4767C7.8769 19.4741 3.99812 18.7723 0.521531 16.8774C0.113735 16.6551 -0.0873581 16.1814 0.036058 15.7336C0.159474 15.2859 0.574912 14.9821 1.039 15.0001C2.44502 15.0548 3.6941 14.7018 4.94842 14.0579C3.65017 13.2557 2.71768 12.3207 2.07835 11.3106C1.19621 9.91684 0.919044 8.45424 0.931903 7.15186C0.944686 5.85718 1.24338 4.7044 1.53097 3.88524C1.67574 3.47288 1.82037 3.13753 1.93066 2.90187C1.98588 2.78385 2.03275 2.69029 2.06707 2.62399C2.08423 2.59083 2.09829 2.56444 2.1087 2.54517L2.12155 2.52164L2.12581 2.51395L2.12739 2.51113L2.12803 2.50999C2.12831 2.50949 2.12858 2.50901 3.0001 2.99936L2.12858 2.50901C2.29619 2.21109 2.60438 2.01944 2.9457 2.00084C3.28703 1.98224 3.61421 2.13929 3.8132 2.41724C5.29896 4.49251 7.49453 5.7626 9.9998 5.97193C9.98829 3.86667 11.3127 2.05856 13.2694 1.32586C14.8937 0.717663 16.8162 0.647187 18.2814 1.87973ZM3.3005 4.90562C3.10579 5.54169 2.94013 6.32837 2.93181 7.17161C2.92191 8.17336 3.13337 9.23781 3.7683 10.241C4.40179 11.2419 5.50381 12.2561 7.39974 13.0827C7.73518 13.2289 7.96396 13.5467 7.99621 13.9112C8.02847 14.2757 7.85905 14.6287 7.5545 14.8316C6.60281 15.4656 5.62154 16.0197 4.56931 16.4099C6.72357 17.0392 8.85922 17.1064 10.7551 16.5561M3.3005 4.90562C5.314 6.94734 8.03725 8.07547 11.0257 7.99903C11.5678 7.98516 12.0001 7.54168 12.0001 6.99936V5.99936H12.0002L12 5.98564C11.9831 4.75447 12.7462 3.65739 13.9708 3.19886C15.3614 2.67813 16.5144 2.83054 17.2517 3.66258C17.509 3.95295 17.911 4.06828 18.2831 3.95847C18.4914 3.89702 18.7106 3.83719 18.938 3.77515C19.0242 3.75162 19.1116 3.72777 19.2 3.7034C19.1617 3.77965 19.1229 3.85623 19.0838 3.9329C18.9951 4.10708 18.9026 4.28625 18.8145 4.45684C18.7078 4.66338 18.6077 4.85733 18.5286 5.01459C18.454 5.16299 18.384 5.30627 18.3312 5.42683C18.3052 5.48615 18.2762 5.55591 18.2521 5.62691C18.2516 5.62813 18.2512 5.62954 18.2506 5.63111C18.2363 5.67282 18.1811 5.83393 18.1821 6.0269C18.1886 7.20239 18.0337 8.37321 17.7216 9.50654C16.6906 13.1733 14.0211 15.6072 10.7553 16.556" fill="#1F2025"/>
</svg>
