<svg width="18" height="14" viewBox="0 0 18 14" fill="none" xmlns="http://www.w3.org/2000/svg">
<path fill-rule="evenodd" clip-rule="evenodd" d="M2.33329 2.50065V11.5225C3.26275 11.1753 4.25034 10.9954 5.24996 10.9954C6.24958 10.9954 7.23717 11.1753 8.16663 11.5225V2.50065C7.25975 2.05942 6.26257 1.82878 5.24996 1.82878C4.23735 1.82878 3.24017 2.05942 2.33329 2.50065ZM9.83329 2.50065V11.5225C10.7628 11.1753 11.7503 10.9954 12.75 10.9954C13.7496 10.9954 14.7372 11.1753 15.6666 11.5225V2.50065C14.7598 2.05942 13.7626 1.82878 12.75 1.82878C11.7373 1.82878 10.7402 2.05942 9.83329 2.50065ZM8.99996 1.05354C7.83878 0.468404 6.55462 0.162109 5.24996 0.162109C3.78715 0.162109 2.35012 0.547162 1.08329 1.27856C0.825458 1.42742 0.666626 1.70253 0.666626 2.00025V12.8336C0.666626 13.1313 0.825458 13.4064 1.08329 13.5553C1.34113 13.7041 1.65879 13.7041 1.91663 13.5553C2.93009 12.9702 4.07971 12.6621 5.24996 12.6621C6.4202 12.6621 7.56983 12.9702 8.58329 13.5553C8.84113 13.7041 9.15879 13.7041 9.41663 13.5553C10.4301 12.9702 11.5797 12.6621 12.75 12.6621C13.9202 12.6621 15.0698 12.9702 16.0833 13.5553C16.3411 13.7041 16.6588 13.7041 16.9166 13.5553C17.1745 13.4064 17.3333 13.1313 17.3333 12.8336V2.00025C17.3333 1.70253 17.1745 1.42742 16.9166 1.27856C15.6498 0.547162 14.2128 0.162109 12.75 0.162109C11.4453 0.162109 10.1611 0.468404 8.99996 1.05354Z" fill="#205BF1"/>
</svg>
