<svg width="18" height="12" viewBox="0 0 18 12" fill="none" xmlns="http://www.w3.org/2000/svg">
<path fill-rule="evenodd" clip-rule="evenodd" d="M3.16663 1.83268C2.70639 1.83268 2.33329 2.20578 2.33329 2.66602V9.33268C2.33329 9.79292 2.70639 10.166 3.16663 10.166H9.83329C10.2935 10.166 10.6666 9.79292 10.6666 9.33268V2.66602C10.6666 2.20578 10.2935 1.83268 9.83329 1.83268H3.16663ZM12.3333 2.98455V2.66602C12.3333 1.2853 11.214 0.166016 9.83329 0.166016H3.16663C1.78591 0.166016 0.666626 1.2853 0.666626 2.66602V9.33268C0.666626 10.7134 1.78591 11.8327 3.16663 11.8327H9.83329C11.214 11.8327 12.3333 10.7134 12.3333 9.33268V9.01434L14.9215 10.3082C15.1755 10.4351 15.4579 10.4951 15.7416 10.4823C16.0253 10.4695 16.301 10.3845 16.5426 10.2352C16.7842 10.086 16.9837 9.87743 17.1221 9.62944C17.2604 9.38144 17.3331 9.10221 17.3333 8.81823V3.18111C17.3331 2.89713 17.2604 2.61745 17.1221 2.36946C16.9837 2.12146 16.7842 1.91294 16.5426 1.76368C16.301 1.61442 16.0253 1.52936 15.7416 1.51658C15.4579 1.5038 15.1757 1.56373 14.9216 1.69067L12.3333 2.98455ZM12.3333 4.84786V7.15104L15.6666 8.81734V3.18156L12.3333 4.84786Z" fill="#205BF1"/>
</svg>
