<svg width="16" height="16" viewBox="0 0 16 16" fill="none" xmlns="http://www.w3.org/2000/svg">
<path fill-rule="evenodd" clip-rule="evenodd" d="M0.988156 0.988156C1.30072 0.675595 1.72464 0.5 2.16667 0.5H10.5C10.942 0.5 11.366 0.675595 11.6785 0.988156C11.9911 1.30072 12.1667 1.72464 12.1667 2.16667H13.8333C14.2754 2.16667 14.6993 2.34226 15.0118 2.65482C15.3244 2.96738 15.5 3.39131 15.5 3.83333V13C15.5 13.663 15.2366 14.2989 14.7678 14.7678C14.2989 15.2366 13.663 15.5 13 15.5H3.83333C2.94928 15.5 2.10143 15.1488 1.47631 14.5237C0.851189 13.8986 0.5 13.0507 0.5 12.1667V2.16667C0.5 1.72464 0.675595 1.30072 0.988156 0.988156ZM10.643 13.8333H3.83333C3.39131 13.8333 2.96738 13.6577 2.65482 13.3452C2.34226 13.0326 2.16667 12.6087 2.16667 12.1667L2.16667 2.16667L10.5 2.16667V13C10.5 13.2866 10.5492 13.5682 10.643 13.8333ZM12.1667 3.83333V13C12.1667 13.221 12.2545 13.433 12.4107 13.5893C12.567 13.7455 12.779 13.8333 13 13.8333C13.221 13.8333 13.433 13.7455 13.5893 13.5893C13.7455 13.433 13.8333 13.221 13.8333 13V3.83333H12.1667ZM3.83333 4.66667C3.83333 4.20643 4.20643 3.83333 4.66667 3.83333H8C8.46024 3.83333 8.83333 4.20643 8.83333 4.66667C8.83333 5.1269 8.46024 5.5 8 5.5H4.66667C4.20643 5.5 3.83333 5.1269 3.83333 4.66667ZM3.83333 8C3.83333 7.53976 4.20643 7.16667 4.66667 7.16667H8C8.46024 7.16667 8.83333 7.53976 8.83333 8C8.83333 8.46024 8.46024 8.83333 8 8.83333H4.66667C4.20643 8.83333 3.83333 8.46024 3.83333 8ZM3.83333 11.3333C3.83333 10.8731 4.20643 10.5 4.66667 10.5H8C8.46024 10.5 8.83333 10.8731 8.83333 11.3333C8.83333 11.7936 8.46024 12.1667 8 12.1667H4.66667C4.20643 12.1667 3.83333 11.7936 3.83333 11.3333Z" fill="#205BF1"/>
</svg>
