<svg width="116" height="32" viewBox="0 0 116 32" fill="none" xmlns="http://www.w3.org/2000/svg">
<path fill-rule="evenodd" clip-rule="evenodd" d="M20.7479 7.2974C21.4731 8.12709 21.392 9.3908 20.5668 10.12L16.1756 14.0001L20.271 15.1034C20.9796 15.2943 21.5262 15.8618 21.6932 16.5801C21.8601 17.2983 21.6204 18.0506 21.0693 18.5376L13.8862 24.8846C13.061 25.6138 11.8042 25.5323 11.079 24.7026C10.3537 23.8729 10.4348 22.6092 11.26 21.88L15.6512 17.9999L11.5558 16.8966C10.8472 16.7056 10.3006 16.1381 10.1336 15.4199C9.96667 14.7016 10.2064 13.9493 10.7575 13.4624L17.9406 7.11536C18.7658 6.3862 20.0226 6.4677 20.7479 7.2974Z" fill="#205BF1"/>
<path d="M45.4552 25.252L43.8559 23.404C43.1318 23.9 42.3521 24.288 41.5166 24.568C40.6812 24.848 39.8219 24.988 38.9387 24.988C37.8008 24.988 36.7665 24.764 35.8355 24.316C34.9046 23.8601 34.1169 23.236 33.4724 22.444C32.8279 21.644 32.3664 20.716 32.0879 19.66C31.8094 18.604 31.7537 17.476 31.9208 16.276C32.0879 15.076 32.4579 13.952 33.0308 12.904C33.6037 11.848 34.3238 10.92 35.191 10.12C36.0583 9.32005 37.0211 8.69605 38.0793 8.24805C39.1376 7.79205 40.2356 7.56405 41.3734 7.56405C42.5112 7.56405 43.5416 7.79205 44.4646 8.24805C45.3955 8.69605 46.1832 9.32005 46.8277 10.12C47.4722 10.92 47.9337 11.848 48.2122 12.904C48.4907 13.952 48.5464 15.076 48.3793 16.276C48.252 17.212 47.9934 18.104 47.6035 18.952C47.2216 19.792 46.7442 20.568 46.1713 21.28L47.8064 23.188L45.4552 25.252ZM39.3444 22.06C39.8059 22.06 40.2674 21.992 40.7289 21.856C41.1984 21.712 41.636 21.512 42.0418 21.256L40.7409 19.732L43.0921 17.656L44.3094 19.096C44.6198 18.68 44.8744 18.232 45.0733 17.752C45.2722 17.272 45.4035 16.78 45.4671 16.276C45.5785 15.476 45.5427 14.728 45.3597 14.032C45.1847 13.336 44.8903 12.724 44.4765 12.196C44.0628 11.66 43.5536 11.244 42.9488 10.948C42.3521 10.644 41.6917 10.492 40.9676 10.492C40.2276 10.492 39.5155 10.644 38.8312 10.948C38.147 11.252 37.5224 11.672 36.9574 12.208C36.4005 12.736 35.931 13.348 35.5491 14.044C35.1751 14.74 34.9364 15.484 34.833 16.276C34.7216 17.068 34.7534 17.816 34.9285 18.52C35.1115 19.216 35.4099 19.832 35.8236 20.368C36.2374 20.896 36.7426 21.312 37.3394 21.616C37.9441 21.912 38.6124 22.06 39.3444 22.06Z" fill="#1F2025"/>
<path d="M49.752 20.308L50.8023 12.748H53.7145L52.7597 19.54C52.704 20.012 52.7636 20.444 52.9387 20.836C53.1137 21.22 53.3763 21.528 53.7264 21.76C54.0845 21.984 54.4942 22.096 54.9557 22.096C55.4252 22.096 55.8668 21.984 56.2805 21.76C56.7022 21.528 57.0523 21.22 57.3308 20.836C57.6172 20.444 57.7923 20.012 57.8559 19.54L58.8107 12.748H61.7229L60.0639 24.748H57.1518L57.2831 23.656C56.8136 24.088 56.2765 24.432 55.6718 24.688C55.0751 24.936 54.4544 25.06 53.8099 25.06C52.9427 25.06 52.1788 24.848 51.5184 24.424C50.866 23.9921 50.3766 23.42 50.0504 22.708C49.7321 21.988 49.6327 21.188 49.752 20.308Z" fill="#1F2025"/>
<path d="M64.1239 12.748H67.0361L65.3652 24.748H62.453L64.1239 12.748ZM65.8187 11.2C65.389 11.2 65.0469 11.06 64.7923 10.78C64.5377 10.492 64.4422 10.132 64.5058 9.70005C64.5695 9.27605 64.7644 8.92005 65.0906 8.63205C65.4248 8.34405 65.8068 8.20005 66.2364 8.20005C66.6502 8.20005 66.9804 8.34405 67.227 8.63205C67.4816 8.92005 67.5811 9.27605 67.5254 9.70005C67.4617 10.132 67.2668 10.492 66.9406 10.78C66.6223 11.06 66.2483 11.2 65.8187 11.2Z" fill="#1F2025"/>
<path d="M75.8673 21.136L78.2782 22.564C77.6257 23.316 76.8539 23.92 75.9628 24.376C75.0716 24.832 74.1367 25.06 73.158 25.06C72.06 25.06 71.0972 24.776 70.2697 24.208C69.4502 23.64 68.8375 22.88 68.4317 21.928C68.0339 20.968 67.9145 19.908 68.0737 18.748C68.193 17.868 68.4596 17.048 68.8733 16.288C69.295 15.52 69.8202 14.848 70.4487 14.272C71.0773 13.688 71.7735 13.232 72.5374 12.904C73.3092 12.576 74.1049 12.412 74.9244 12.412C75.9031 12.412 76.7743 12.64 77.5382 13.096C78.31 13.552 78.9147 14.164 79.3523 14.932L76.5237 16.348C76.285 16.028 75.9906 15.78 75.6405 15.604C75.2904 15.428 74.9164 15.34 74.5186 15.34C73.9378 15.34 73.3967 15.5 72.8954 15.82C72.3942 16.132 71.9725 16.548 71.6303 17.068C71.2882 17.58 71.0734 18.14 70.9858 18.748C70.9063 19.348 70.962 19.908 71.1529 20.428C71.3518 20.94 71.6582 21.352 72.0719 21.664C72.4936 21.976 72.9909 22.132 73.5638 22.132C73.9776 22.132 74.3833 22.044 74.7812 21.868C75.187 21.684 75.549 21.44 75.8673 21.136Z" fill="#1F2025"/>
<path d="M90.4195 24.748H87.0657L85.001 20.032L83.0436 22.036L82.6736 24.748H79.7615L82.2678 6.74805H85.18L83.6762 17.488L88.295 12.748H92.1023L87.3283 17.656L90.4195 24.748Z" fill="#1F2025"/>
<path d="M93.8217 12.748H96.7339L95.063 24.748H92.1508L93.8217 12.748ZM95.5165 11.2C95.0868 11.2 94.7447 11.06 94.4901 10.78C94.2355 10.492 94.14 10.132 94.2037 9.70005C94.2673 9.27605 94.4622 8.92005 94.7885 8.63205C95.1227 8.34405 95.5046 8.20005 95.9342 8.20005C96.348 8.20005 96.6782 8.34405 96.9249 8.63205C97.1795 8.92005 97.2789 9.27605 97.2232 9.70005C97.1596 10.132 96.9646 10.492 96.6384 10.78C96.3201 11.06 95.9462 11.2 95.5165 11.2Z" fill="#1F2025"/>
<path d="M105.594 15.676H103.279L102.014 24.748H99.1015L100.367 15.676H98.6002L99.006 12.748H100.772L101.298 8.98005H104.21L103.685 12.748H106L105.594 15.676Z" fill="#1F2025"/>
</svg>
