<svg width="14" height="18" viewBox="0 0 14 18" fill="none" xmlns="http://www.w3.org/2000/svg">
<path fill-rule="evenodd" clip-rule="evenodd" d="M6.16671 2.33366C5.70647 2.33366 5.33337 2.70675 5.33337 3.16699C5.33337 3.62723 5.70647 4.00033 6.16671 4.00033H7.83337C8.29361 4.00033 8.66671 3.62723 8.66671 3.16699C8.66671 2.70675 8.29361 2.33366 7.83337 2.33366H6.16671ZM3.80896 2.33366C4.15216 1.36267 5.07819 0.666992 6.16671 0.666992H7.83337C8.92189 0.666992 9.84792 1.36267 10.1911 2.33366H11.1667C11.8297 2.33366 12.4656 2.59705 12.9345 3.06589C13.4033 3.53473 13.6667 4.17062 13.6667 4.83366V14.8337C13.6667 15.4967 13.4033 16.1326 12.9345 16.6014C12.4656 17.0703 11.8297 17.3337 11.1667 17.3337H2.83337C2.17033 17.3337 1.53445 17.0703 1.06561 16.6014C0.596766 16.1326 0.333374 15.4967 0.333374 14.8337V4.83366C0.333374 4.17062 0.596766 3.53473 1.06561 3.06589C1.53445 2.59705 2.17033 2.33366 2.83337 2.33366H3.80896ZM3.80896 4.00033H2.83337C2.61236 4.00033 2.4004 4.08812 2.24412 4.2444C2.08784 4.40068 2.00004 4.61265 2.00004 4.83366V14.8337C2.00004 15.0547 2.08784 15.2666 2.24412 15.4229C2.4004 15.5792 2.61236 15.667 2.83337 15.667H11.1667C11.3877 15.667 11.5997 15.5792 11.756 15.4229C11.9122 15.2666 12 15.0547 12 14.8337V4.83366C12 4.61265 11.9122 4.40068 11.756 4.2444C11.5997 4.08812 11.3877 4.00033 11.1667 4.00033H10.1911C9.84792 4.97132 8.92189 5.66699 7.83337 5.66699H6.16671C5.07819 5.66699 4.15216 4.97132 3.80896 4.00033ZM4.50004 8.16699C4.96028 8.16699 5.33337 8.54009 5.33337 9.00033V13.167C5.33337 13.6272 4.96028 14.0003 4.50004 14.0003C4.0398 14.0003 3.66671 13.6272 3.66671 13.167V9.00033C3.66671 8.54009 4.0398 8.16699 4.50004 8.16699ZM9.50004 9.83366C9.96028 9.83366 10.3334 10.2068 10.3334 10.667V13.167C10.3334 13.6272 9.96028 14.0003 9.50004 14.0003C9.0398 14.0003 8.66671 13.6272 8.66671 13.167V10.667C8.66671 10.2068 9.0398 9.83366 9.50004 9.83366ZM7.00004 11.5003C7.46028 11.5003 7.83337 11.8734 7.83337 12.3337V13.167C7.83337 13.6272 7.46028 14.0003 7.00004 14.0003C6.5398 14.0003 6.16671 13.6272 6.16671 13.167V12.3337C6.16671 11.8734 6.5398 11.5003 7.00004 11.5003Z" fill="white"/>
</svg>
