<svg width="42" height="30" viewBox="0 0 42 30" fill="none" xmlns="http://www.w3.org/2000/svg">
<path d="M11.25 15C12.9739 15 14.6272 14.3152 15.8462 13.0962C17.0652 11.8772 17.75 10.2239 17.75 8.5C17.75 6.77609 17.0652 5.12279 15.8462 3.90381C14.6272 2.68482 12.9739 2 11.25 2H1.5V28H11.25C12.9739 28 14.6272 27.3152 15.8462 26.0962C17.0652 24.8772 17.75 23.2239 17.75 21.5C17.75 19.7761 17.0652 18.1228 15.8462 16.9038C14.6272 15.6848 12.9739 15 11.25 15ZM11.25 15H1.5M25.3333 17.1667H40.5C40.5 15.1554 39.701 13.2266 38.2789 11.8044C36.8567 10.3823 34.9279 9.58333 32.9167 9.58333C30.9054 9.58333 28.9766 10.3823 27.5544 11.8044C26.1323 13.2266 25.3333 15.1554 25.3333 17.1667ZM25.3333 17.1667V21.5C25.5568 23.1221 26.2994 24.6283 27.4499 25.7934C28.6004 26.9585 30.0972 27.7199 31.7164 27.9637C33.3355 28.2076 34.9902 27.9208 36.4328 27.1462C37.8755 26.3717 39.0287 25.151 39.72 23.6667M29.6667 2H36.1667" stroke="white" stroke-width="3" stroke-linecap="round" stroke-linejoin="round"/>
</svg>
