<svg width="29" height="42" viewBox="0 0 29 42" fill="none" xmlns="http://www.w3.org/2000/svg">
<path d="M21 14.5C17.4101 14.5 14.5 17.4101 14.5 21C14.5 24.5899 17.4101 27.5 21 27.5C24.5899 27.5 27.5 24.5899 27.5 21C27.5 17.4101 24.5899 14.5 21 14.5ZM21 14.5C24.5899 14.5 27.5 11.5899 27.5 8C27.5 4.41015 24.5899 1.5 21 1.5H8C4.41015 1.5 1.5 4.41015 1.5 8C1.5 11.5899 4.41015 14.5 8 14.5M21 14.5H8M8 14.5C6.27609 14.5 4.6228 15.1848 3.40381 16.4038C2.18482 17.6228 1.5 19.2761 1.5 21C1.5 22.7239 2.18482 24.3772 3.40381 25.5962C4.6228 26.8152 6.2761 27.5 8 27.5M8 27.5H14.5M8 27.5C6.71442 27.5 5.45772 27.8812 4.3888 28.5954C3.31988 29.3097 2.48676 30.3248 1.99479 31.5126C1.50282 32.7003 1.37409 34.0072 1.6249 35.2681C1.8757 36.529 2.49477 37.6872 3.40381 38.5962C4.31285 39.5052 5.47104 40.1243 6.73192 40.3751C7.99279 40.6259 9.29973 40.4972 10.4874 40.0052C11.6752 39.5132 12.6903 38.6801 13.4046 37.6112C14.1188 36.5423 14.5 35.2856 14.5 34V1.5" stroke="white" stroke-width="3" stroke-linecap="round" stroke-linejoin="round"/>
</svg>
