<svg width="43" height="42" viewBox="0 0 43 42" fill="none" xmlns="http://www.w3.org/2000/svg">
<path d="M12.8333 38.3333L21.5 18.8333M18.6833 25.3333C19.6302 28.0698 21.7817 29.6667 24.2083 29.6667C28.6955 29.6667 32.3333 26.2997 32.3333 21C32.3352 19.418 31.9905 17.8547 31.3236 16.4201C30.6566 14.9855 29.6835 13.7144 28.4727 12.6962C27.2619 11.6779 25.8428 10.9372 24.3151 10.5261C22.7874 10.115 21.1882 10.0435 19.6299 10.3166C18.0716 10.5897 16.592 11.2008 15.2952 12.1069C13.9983 13.0131 12.9157 14.1922 12.1233 15.5615C11.331 16.9309 10.8481 18.4571 10.7088 20.033C10.5694 21.6089 10.7769 23.1962 11.3167 24.6833M41 21C41 31.7696 32.2696 40.5 21.5 40.5C10.7304 40.5 2 31.7696 2 21C2 10.2304 10.7304 1.5 21.5 1.5C32.2696 1.5 41 10.2304 41 21Z" stroke="white" stroke-width="3" stroke-linecap="round" stroke-linejoin="round"/>
</svg>
